<svg width="14" height="14" viewBox="0 0 14 14" fill="none" xmlns="http://www.w3.org/2000/svg">
<g clip-path="url(#clip0_21_2118)">
<path opacity="0.12" d="M7.00008 1.16683C10.2217 1.16683 12.8334 3.7785 12.8334 7.00016C12.8334 10.2218 10.2217 12.8335 7.00008 12.8335C3.77842 12.8335 1.16675 10.2218 1.16675 7.00016C1.16675 3.7785 3.77842 1.16683 7.00008 1.16683Z" fill="#FF7070"/>
<path d="M4.66675 7.00016L7.00008 4.66683M7.00008 4.66683L9.33341 7.00016M7.00008 4.66683V9.3335M12.8334 7.00016C12.8334 3.7785 10.2217 1.16683 7.00008 1.16683C3.77842 1.16683 1.16675 3.7785 1.16675 7.00016C1.16675 10.2218 3.77842 12.8335 7.00008 12.8335C10.2217 12.8335 12.8334 10.2218 12.8334 7.00016Z" stroke="#FF7070" stroke-width="1.16667" stroke-linecap="round" stroke-linejoin="round"/>
</g>
<defs>
<clipPath id="clip0_21_2118">
<rect width="14" height="14" fill="white" transform="matrix(1 0 0 -1 0 14)"/>
</clipPath>
</defs>
</svg>
