<svg width="24" height="25" viewBox="0 0 24 25" fill="none" xmlns="http://www.w3.org/2000/svg">
<circle cx="12" cy="12.5" r="12" fill="#00DCFA"/>
<path d="M14.2442 5.24414C11.6723 5.24414 9.48737 7.22258 9.21211 9.76875C6.66594 10.044 4.6875 12.2289 4.6875 14.8009C4.6875 17.5965 6.95841 19.8674 9.75403 19.8674C12.326 19.8674 14.5195 17.889 14.7861 15.3428C17.3323 15.0675 19.3108 12.8826 19.3108 10.3107C19.3108 7.51505 17.0398 5.24414 14.2442 5.24414V5.24414ZM18.1237 10.8784C17.8742 12.573 16.5151 13.9321 14.8206 14.1815V10.8784H18.1237ZM5.87456 14.2332C6.12402 12.53 7.48312 11.1709 9.1777 10.9214V14.2246H5.87456V14.2332ZM13.6335 15.3772C13.3496 17.2954 11.7067 18.7234 9.75403 18.7234C7.80139 18.7234 6.15843 17.2954 5.87456 15.3772H13.6335ZM13.6765 10.8784V14.2246H10.3218V10.8784H13.6765ZM18.1237 9.73434H10.3648C10.6486 7.81612 12.2916 6.3882 14.2442 6.3882C16.1969 6.3882 17.8398 7.81612 18.1237 9.73434Z" fill="white"/>
</svg>
