<svg width="24" height="25" viewBox="0 0 24 25" fill="none" xmlns="http://www.w3.org/2000/svg">
<mask id="mask0_21_538" style="mask-type:alpha" maskUnits="userSpaceOnUse" x="0" y="0" width="24" height="25">
<path d="M12 24.5C18.6274 24.5 24 19.1274 24 12.5C24 5.87258 18.6274 0.5 12 0.5C5.37258 0.5 0 5.87258 0 12.5C0 19.1274 5.37258 24.5 12 24.5Z" fill="white"/>
</mask>
<g mask="url(#mask0_21_538)">
<path d="M12 24.5C18.6274 24.5 24 19.1274 24 12.5C24 5.87258 18.6274 0.5 12 0.5C5.37258 0.5 0 5.87258 0 12.5C0 19.1274 5.37258 24.5 12 24.5Z" fill="#0C0A1D"/>
<path d="M0 48.5C13.2548 48.5 24 37.7548 24 24.5C24 11.2452 13.2548 0.5 0 0.5C-13.2548 0.5 -24 11.2452 -24 24.5C-24 37.7548 -13.2548 48.5 0 48.5Z" fill="url(#paint0_radial_21_538)"/>
<path d="M24 48.5C37.2548 48.5 48 37.7548 48 24.5C48 11.2452 37.2548 0.5 24 0.5C10.7452 0.5 0 11.2452 0 24.5C0 37.7548 10.7452 48.5 24 48.5Z" fill="url(#paint1_radial_21_538)"/>
<path d="M24 24.5C37.2548 24.5 48 13.7548 48 0.5C48 -12.7548 37.2548 -23.5 24 -23.5C10.7452 -23.5 0 -12.7548 0 0.5C0 13.7548 10.7452 24.5 24 24.5Z" fill="url(#paint2_radial_21_538)"/>
<path d="M0 24.5C13.2548 24.5 24 13.7548 24 0.5C24 -12.7548 13.2548 -23.5 0 -23.5C-13.2548 -23.5 -24 -12.7548 -24 0.5C-24 13.7548 -13.2548 24.5 0 24.5Z" fill="url(#paint3_radial_21_538)"/>
<path fill-rule="evenodd" clip-rule="evenodd" d="M16.4008 15.8911C16.6997 16.1887 16.7146 16.6619 16.4456 16.977L16.4008 17.0254L13.178 20.2338C12.8634 20.5471 12.3533 20.5471 12.0387 20.2338C11.7398 19.9362 11.7248 19.4631 11.9938 19.1479L12.0387 19.0995L15.2614 15.8911C15.5761 15.5779 16.0861 15.5779 16.4008 15.8911ZM11.8027 6.03125C14.4725 6.03125 16.6367 8.18588 16.6367 10.8437C16.6367 13.5016 14.4725 15.6562 11.8027 15.6562C9.13301 15.6562 6.96875 13.5016 6.96875 10.8437C6.96875 8.18588 9.13301 6.03125 11.8027 6.03125ZM11.8027 7.63541C10.0229 7.63541 8.58008 9.07177 8.58008 10.8437C8.58008 12.6157 10.0229 14.0521 11.8027 14.0521C13.5826 14.0521 15.0254 12.6157 15.0254 10.8437C15.0254 9.07177 13.5826 7.63541 11.8027 7.63541ZM17.4425 6.03125C17.8874 6.03125 18.248 6.39029 18.248 6.83333C18.248 7.27637 17.8874 7.63541 17.4425 7.63541C16.9975 7.63541 16.6368 7.27637 16.6368 6.83333C16.6368 6.39029 16.9975 6.03125 17.4425 6.03125Z" fill="white"/>
</g>
<defs>
<radialGradient id="paint0_radial_21_538" cx="0" cy="0" r="1" gradientUnits="userSpaceOnUse" gradientTransform="translate(-1.39363e-06 24.5) scale(23.9423)">
<stop stop-color="#59CEFF"/>
<stop offset="1" stop-color="#59CEFF" stop-opacity="0"/>
</radialGradient>
<radialGradient id="paint1_radial_21_538" cx="0" cy="0" r="1" gradientUnits="userSpaceOnUse" gradientTransform="translate(24 24.5) scale(23.9423)">
<stop stop-color="#4C66FF"/>
<stop offset="1" stop-color="#4C66FF" stop-opacity="0"/>
</radialGradient>
<radialGradient id="paint2_radial_21_538" cx="0" cy="0" r="1" gradientUnits="userSpaceOnUse" gradientTransform="translate(24 0.5) scale(24)">
<stop offset="0.00879589" stop-color="#3A0C83"/>
<stop offset="1" stop-color="#3A0C83" stop-opacity="0"/>
</radialGradient>
<radialGradient id="paint3_radial_21_538" cx="0" cy="0" r="1" gradientUnits="userSpaceOnUse" gradientTransform="translate(-1.39363e-06 0.499999) scale(23.9423)">
<stop stop-color="#6F4CFF"/>
<stop offset="1" stop-color="#6F4CFF" stop-opacity="0"/>
</radialGradient>
</defs>
</svg>
