<svg width="24" height="25" viewBox="0 0 24 25" fill="none" xmlns="http://www.w3.org/2000/svg">
<circle cx="12" cy="12.5" r="12" fill="#FF7070"/>
<path fill-rule="evenodd" clip-rule="evenodd" d="M8.50536 17.2752H6.17649C5.68713 17.2752 5.4454 17.2752 5.29802 17.1809C5.13882 17.0777 5.04154 16.9067 5.02975 16.718C5.0209 16.5442 5.14178 16.3318 5.3835 15.9073L11.1338 5.77173C11.3784 5.34133 11.5022 5.12613 11.6585 5.04654C11.8265 4.96105 12.027 4.96105 12.195 5.04654C12.3513 5.12613 12.4751 5.34133 12.7197 5.77173L13.9019 7.83528L13.9079 7.84581C14.1722 8.30755 14.3062 8.5417 14.3647 8.78745C14.4295 9.05572 14.4295 9.33872 14.3647 9.60698C14.3057 9.85461 14.1731 10.0905 13.9048 10.5592L10.8843 15.8985L10.8765 15.9122C10.6105 16.3777 10.4757 16.6137 10.2889 16.7917C10.0855 16.9863 9.84078 17.1277 9.57251 17.2074C9.32783 17.2752 9.05368 17.2752 8.50536 17.2752ZM14.3865 17.2752H17.7235C18.2158 17.2752 18.4635 17.2752 18.611 17.178C18.7701 17.0748 18.8703 16.9008 18.8792 16.7123C18.8877 16.544 18.7695 16.34 18.5378 15.9401C18.5298 15.9265 18.5218 15.9127 18.5136 15.8986L16.8421 13.0391L16.8231 13.0069C16.5882 12.6097 16.4696 12.4091 16.3174 12.3316C16.1494 12.2461 15.9518 12.2461 15.7838 12.3316C15.6305 12.4112 15.5067 12.6205 15.262 13.042L13.5965 15.9015L13.5908 15.9114C13.3469 16.3322 13.2251 16.5426 13.2339 16.7151C13.2457 16.9038 13.3429 17.0777 13.5021 17.1809C13.6466 17.2752 13.8942 17.2752 14.3865 17.2752Z" fill="white"/>
</svg>
