<svg width="25" height="25" viewBox="0 0 25 25" fill="none" xmlns="http://www.w3.org/2000/svg">
<circle cx="12.5" cy="12.5" r="12" fill="url(#paint0_linear_21_1893)"/>
<path d="M19.6159 10.52H18.1919C17.4079 8.34405 15.2999 6.85205 12.5199 6.85205H7.94786V10.52H6.35986V11.836H7.94786V13.216H6.35986V14.532H7.94786V18.156H12.5199C15.2679 18.156 17.3599 16.676 18.1639 14.532H19.6159V13.216H18.4839C18.5119 12.984 18.5279 12.7441 18.5279 12.504V12.472C18.5279 12.256 18.5159 12.044 18.4959 11.836H19.6199V10.52H19.6159ZM9.22786 8.02405H12.5199C14.5599 8.02405 16.0759 9.02805 16.7759 10.516H9.22786V8.02405ZM12.5199 16.972H9.22786V14.528H16.7679C16.0639 15.9921 14.5519 16.972 12.5199 16.972ZM17.2039 12.532C17.2039 12.764 17.1879 12.992 17.1559 13.212H9.22786V11.832H17.1599C17.1879 12.048 17.2039 12.272 17.2039 12.5V12.532Z" fill="white"/>
<defs>
<linearGradient id="paint0_linear_21_1893" x1="12.5" y1="-2.9" x2="12.5" y2="27.02" gradientUnits="userSpaceOnUse">
<stop stop-color="#F9A606"/>
<stop offset="1" stop-color="#FBCC5F"/>
</linearGradient>
</defs>
</svg>
