<svg width="14" height="15" viewBox="0 0 14 15" fill="none" xmlns="http://www.w3.org/2000/svg">
<g clip-path="url(#clip0_580_2715)">
<path d="M2.8125 0C1.25977 0 0 1.25977 0 2.8125V12.1875C0 13.7402 1.25977 15 2.8125 15H12.1875C12.7061 15 13.125 14.5811 13.125 14.0625C13.125 13.5439 12.7061 13.125 12.1875 13.125V11.25C12.7061 11.25 13.125 10.8311 13.125 10.3125V0.9375C13.125 0.418945 12.7061 0 12.1875 0H11.25H2.8125ZM2.8125 11.25H10.3125V13.125H2.8125C2.29395 13.125 1.875 12.7061 1.875 12.1875C1.875 11.6689 2.29395 11.25 2.8125 11.25ZM3.75 4.21875C3.75 3.96094 3.96094 3.75 4.21875 3.75H9.84375C10.1016 3.75 10.3125 3.96094 10.3125 4.21875C10.3125 4.47656 10.1016 4.6875 9.84375 4.6875H4.21875C3.96094 4.6875 3.75 4.47656 3.75 4.21875ZM4.21875 5.625H9.84375C10.1016 5.625 10.3125 5.83594 10.3125 6.09375C10.3125 6.35156 10.1016 6.5625 9.84375 6.5625H4.21875C3.96094 6.5625 3.75 6.35156 3.75 6.09375C3.75 5.83594 3.96094 5.625 4.21875 5.625Z" fill="#767676"/>
</g>
<defs>
<clipPath id="clip0_580_2715">
<rect width="13.125" height="15" fill="white"/>
</clipPath>
</defs>
</svg>
