<svg width="15" height="15" viewBox="0 0 15 15" fill="none" xmlns="http://www.w3.org/2000/svg">
<path d="M7.4625 12C7.725 12 7.947 11.9092 8.1285 11.7277C8.31 11.5462 8.4005 11.3245 8.4 11.0625C8.4 10.8 8.3095 10.578 8.1285 10.3965C7.9475 10.215 7.7255 10.1245 7.4625 10.125C7.2 10.125 6.97825 10.2157 6.79725 10.3972C6.61625 10.5787 6.5255 10.8005 6.525 11.0625C6.525 11.325 6.61575 11.547 6.79725 11.7285C6.97875 11.91 7.2005 12.0005 7.4625 12ZM6.7875 9.1125H8.175C8.175 8.7 8.222 8.375 8.316 8.1375C8.41 7.9 8.6755 7.575 9.1125 7.1625C9.4375 6.8375 9.69375 6.528 9.88125 6.234C10.0687 5.94 10.1625 5.587 10.1625 5.175C10.1625 4.475 9.90625 3.9375 9.39375 3.5625C8.88125 3.1875 8.275 3 7.575 3C6.8625 3 6.2845 3.1875 5.841 3.5625C5.3975 3.9375 5.088 4.3875 4.9125 4.9125L6.15 5.4C6.2125 5.175 6.35325 4.93125 6.57225 4.66875C6.79125 4.40625 7.1255 4.275 7.575 4.275C7.975 4.275 8.275 4.3845 8.475 4.6035C8.675 4.8225 8.775 5.063 8.775 5.325C8.775 5.575 8.7 5.8095 8.55 6.0285C8.4 6.2475 8.2125 6.4505 7.9875 6.6375C7.4375 7.125 7.1 7.49375 6.975 7.74375C6.85 7.99375 6.7875 8.45 6.7875 9.1125ZM7.5 15C6.4625 15 5.4875 14.8032 4.575 14.4097C3.6625 14.0162 2.86875 13.4817 2.19375 12.8062C1.51875 12.1312 0.9845 11.3375 0.591 10.425C0.1975 9.5125 0.0005 8.5375 0 7.5C0 6.4625 0.197 5.4875 0.591 4.575C0.985 3.6625 1.51925 2.86875 2.19375 2.19375C2.86875 1.51875 3.6625 0.9845 4.575 0.591C5.4875 0.1975 6.4625 0.0005 7.5 0C8.5375 0 9.5125 0.197 10.425 0.591C11.3375 0.985 12.1312 1.51925 12.8062 2.19375C13.4812 2.86875 14.0157 3.6625 14.4097 4.575C14.8037 5.4875 15.0005 6.4625 15 7.5C15 8.5375 14.803 9.5125 14.409 10.425C14.015 11.3375 13.4807 12.1312 12.8062 12.8062C12.1312 13.4812 11.3375 14.0157 10.425 14.4097C9.5125 14.8037 8.5375 15.0005 7.5 15Z" fill="#767676"/>
</svg>
