<svg width="44" height="44" viewBox="0 0 44 44" fill="none" xmlns="http://www.w3.org/2000/svg">
<rect width="44" height="44" rx="10" fill="#252525"/>
<path d="M24.13 21.3395C24.52 19.6995 23.09 18.2695 21.45 18.6595C20.68 18.8495 20.05 19.4795 19.86 20.2495C19.47 21.8895 20.9 23.3195 22.54 22.9295C23.32 22.7395 23.95 22.1095 24.13 21.3395Z" fill="white"/>
<path d="M16.02 27.97C15.84 27.97 15.65 27.9 15.51 27.77C13.57 25.97 12.46 23.43 12.46 20.79C12.46 15.53 16.74 11.25 22 11.25C27.26 11.25 31.54 15.53 31.54 20.79C31.54 23.45 30.47 25.91 28.53 27.74C28.23 28.02 27.75 28.01 27.47 27.71C27.19 27.41 27.2 26.93 27.5 26.65C29.14 25.11 30.04 23.04 30.04 20.8C30.04 16.37 26.43 12.76 22 12.76C17.57 12.76 13.96 16.37 13.96 20.8C13.96 23.06 14.87 25.14 16.53 26.68C16.83 26.96 16.85 27.44 16.57 27.74C16.42 27.89 16.22 27.97 16.02 27.97Z" fill="white"/>
<path d="M26 25.2996C25.82 25.2996 25.63 25.2296 25.49 25.0996C25.19 24.8196 25.17 24.3396 25.46 24.0396C26.29 23.1596 26.75 21.9996 26.75 20.7996C26.75 18.1796 24.62 16.0596 22.01 16.0596C19.4 16.0596 17.27 18.1896 17.27 20.7996C17.27 22.0096 17.73 23.1596 18.56 24.0396C18.84 24.3396 18.83 24.8196 18.53 25.0996C18.23 25.3896 17.75 25.3696 17.47 25.0696C16.38 23.9096 15.77 22.3896 15.77 20.7996C15.77 17.3596 18.57 14.5596 22.01 14.5596C25.45 14.5596 28.25 17.3596 28.25 20.7996C28.25 22.3896 27.65 23.9096 26.55 25.0696C26.4 25.2196 26.2 25.2996 26 25.2996Z" fill="white"/>
<path d="M20.3 26.66L18.86 28.45C17.72 29.88 18.74 32 20.56 32H23.43C25.26 32 26.28 29.88 25.13 28.46L23.69 26.67C22.83 25.57 21.17 25.57 20.3 26.66Z" fill="white"/>
</svg>
