<svg width="38" height="38" viewBox="0 0 38 38" fill="none" xmlns="http://www.w3.org/2000/svg">
<rect width="38" height="38" rx="10" fill="#252525"/>
<path d="M27.6376 14.6322H22.7551C22.4138 14.6322 22.1426 14.361 22.1426 14.0197C22.1426 13.6785 22.4138 13.4072 22.7551 13.4072H27.6376C27.9788 13.4072 28.2501 13.6785 28.2501 14.0197C28.2501 14.361 27.9788 14.6322 27.6376 14.6322Z" fill="#7A7A7A"/>
<path d="M14.6175 14.6322H11.3625C11.0213 14.6322 10.75 14.361 10.75 14.0197C10.75 13.6785 11.0213 13.4072 11.3625 13.4072H14.6175C14.9588 13.4072 15.23 13.6785 15.23 14.0197C15.23 14.361 14.95 14.6322 14.6175 14.6322Z" fill="#7A7A7A"/>
<path d="M17.8725 17.476C19.7813 17.476 21.3288 15.9286 21.3288 14.0197C21.3288 12.1109 19.7813 10.5635 17.8725 10.5635C15.9637 10.5635 14.4163 12.1109 14.4163 14.0197C14.4163 15.9286 15.9637 17.476 17.8725 17.476Z" fill="#7A7A7A"/>
<path d="M27.6375 23.5834H24.3825C24.0413 23.5834 23.77 23.3121 23.77 22.9709C23.77 22.6296 24.0413 22.3584 24.3825 22.3584H27.6375C27.9788 22.3584 28.25 22.6296 28.25 22.9709C28.25 23.3121 27.9788 23.5834 27.6375 23.5834Z" fill="#7A7A7A"/>
<path d="M16.245 23.5834H11.3625C11.0213 23.5834 10.75 23.3121 10.75 22.9709C10.75 22.6296 11.0213 22.3584 11.3625 22.3584H16.245C16.5862 22.3584 16.8575 22.6296 16.8575 22.9709C16.8575 23.3121 16.5775 23.5834 16.245 23.5834Z" fill="#7A7A7A"/>
<path d="M21.1276 26.4359C23.0365 26.4359 24.5839 24.8885 24.5839 22.9797C24.5839 21.0709 23.0365 19.5234 21.1276 19.5234C19.2188 19.5234 17.6714 21.0709 17.6714 22.9797C17.6714 24.8885 19.2188 26.4359 21.1276 26.4359Z" fill="#7A7A7A"/>
</svg>
