<svg width="24" height="24" viewBox="0 0 24 24" fill="none" xmlns="http://www.w3.org/2000/svg">
<path fill-rule="evenodd" clip-rule="evenodd" d="M3.75 13.25C4.16421 13.25 4.5 13.5858 4.5 14V16C4.5 16.6904 5.05964 17.25 5.75 17.25H17.75C18.4404 17.25 19 16.6904 19 16V14C19 13.5858 19.3358 13.25 19.75 13.25C20.1642 13.25 20.5 13.5858 20.5 14V16C20.5 17.5188 19.2688 18.75 17.75 18.75H5.75C4.23122 18.75 3 17.5188 3 16V14C3 13.5858 3.33579 13.25 3.75 13.25Z" fill="#7A7A7A"/>
<path d="M17.0303 11.2822C17.3232 10.9893 17.3232 10.5145 17.0303 10.2216C16.7374 9.92868 16.2625 9.92868 15.9696 10.2216L12.7519 13.4393V5.74952C12.7519 5.33531 12.4161 4.99952 12.0019 4.99952C11.5877 4.99952 11.2519 5.33531 11.2519 5.74952V13.4394L8.03216 10.2196C7.73927 9.92673 7.26439 9.92673 6.9715 10.2196C6.67861 10.5125 6.67861 10.9874 6.9715 11.2803L11.4715 15.7803C11.6122 15.921 11.803 16 12.0019 16C12.2008 16 12.3916 15.921 12.5322 15.7803L17.0303 11.2822Z" fill="#7A7A7A"/>
</svg>
